<svg width="127" height="81" viewBox="0 0 127 81" fill="none" xmlns="http://www.w3.org/2000/svg">
<path d="M103.772 80.6236H95.7251C94.9846 80.6236 94.3839 80.0049 94.3839 79.2421C94.3839 78.4793 94.9846 77.8606 95.7251 77.8606H103.772C114.865 77.8606 123.89 68.564 123.89 57.138C123.89 45.7121 114.865 36.4155 103.772 36.4155H103.579C103.19 36.4155 102.82 36.2418 102.565 35.9388C102.31 35.6359 102.195 35.2343 102.251 34.8376C102.371 33.9771 102.431 33.1127 102.431 32.271C102.431 22.3686 94.6088 14.3113 84.9955 14.3113C81.2555 14.3113 77.6888 15.5152 74.6807 17.7936C74.0197 18.2939 73.0808 18.0719 72.6986 17.3229C64.1792 0.612712 41.9276 -1.6313 30.3912 12.9051C25.5315 19.0291 23.622 26.9955 25.1521 34.7597C25.3207 35.6172 24.6836 36.4165 23.8377 36.4165H23.3003C12.2078 36.4165 3.1825 45.7131 3.1825 57.1391C3.1825 68.565 12.2078 77.8616 23.3003 77.8616H31.3473C32.0878 77.8616 32.6885 78.4803 32.6885 79.2432C32.6885 80.0059 32.0878 80.6247 31.3473 80.6247H23.3003C10.7285 80.6247 0.5 70.0887 0.5 57.139C0.5 44.5525 10.1622 34.2464 22.2474 33.678C21.1122 25.6228 23.283 17.4975 28.3143 11.1566C40.6656 -4.40803 64.336 -2.66345 74.342 14.6922C77.5341 12.6308 81.1868 11.5494 84.995 11.5494C96.6422 11.5494 105.872 21.7607 105.064 33.6909C117.038 34.3827 126.572 44.6344 126.572 57.138C126.572 70.0887 116.343 80.6237 103.772 80.6237L103.772 80.6236Z" fill="url(#paint0_linear_1_735)"/>
<defs>
<linearGradient id="paint0_linear_1_735" x1="164.775" y1="137.857" x2="-31.417" y2="9.92999" gradientUnits="userSpaceOnUse">
<stop stop-color="#F000B7"/>
<stop offset="1" stop-color="#028DF9"/>
</linearGradient>
</defs>
</svg>
